<svg xmlns="http://www.w3.org/2000/svg" viewBox="0 0 118.06 111.4"><defs><style>.cls-1{fill:#59a561;}.cls-2{fill:#f5c237;}.cls-3{fill:#ff8c46;}</style></defs><title>iso_salix_new_color</title><g id="Layer_2" data-name="Layer 2"><g id="Capa_1" data-name="Capa 1"><path class="cls-1" d="M111.63,56.78a34.35,34.35,0,0,0-15.26-12,21.94,21.94,0,0,1-4.07,9.89A23.82,23.82,0,1,1,59.74,77.77a17.44,17.44,0,0,1-10.68-2.36,34.52,34.52,0,1,0,62.57-18.63Z"/><path class="cls-2" d="M51,100.33a21.22,21.22,0,0,1-2.67-4.86,23.82,23.82,0,1,1-6.35-42,17.34,17.34,0,0,1,7.75-8.36,34.51,34.51,0,1,0,4.86,59l0-.05A21.61,21.61,0,0,1,51,100.33Z"/><path class="cls-3" d="M86.36,14.44A34.53,34.53,0,0,0,24,38.13a22.13,22.13,0,0,1,10.64-1.19,23.87,23.87,0,0,1,9.84-21.79,23.82,23.82,0,0,1,29.3,37.52,22,22,0,0,1,4.9,9.75,34.51,34.51,0,0,0,7.73-48Z"/></g></g></svg>