<svg xmlns="http://www.w3.org/2000/svg" viewBox="0 0 685.22 111.4"><defs><style>.cls-1{fill:#fff;}.cls-2{fill:#104051;stroke:#fff;stroke-miterlimit:10;stroke-width:3.81px;}.cls-3{fill:#59a561;}.cls-4{fill:#f5c237;}.cls-5{fill:#ff8c46;}</style></defs><title>salix_new_white</title><g id="Layer_2" data-name="Layer 2"><g id="Capa_1" data-name="Capa 1"><path class="cls-1" d="M431.63,72h-4.06l10.06-22.24h3.28L451,72h-4l-8.19-19.11h1.09Zm.37-5.21,1.54-3.13h11.33l1.47,3.13Z"/><path class="cls-1" d="M453.06,72V49H457V72Z"/><path class="cls-1" d="M465.58,72,459.4,56.2h4l4.43,12.21h-.78l4.47-12.21h2.84l4.43,12.21h-.71l4.43-12.21h3.78L480.14,72h-3.41l-4.81-12.71h1.78L469,72Z"/><path class="cls-1" d="M494.66,72.19a6.85,6.85,0,0,1-3.65-1,6.5,6.5,0,0,1-2.46-2.81,11.31,11.31,0,0,1,0-8.65A7,7,0,0,1,491,56.84a6.42,6.42,0,0,1,3.64-1.05,6.13,6.13,0,0,1,3.48,1,4.87,4.87,0,0,1,2,2.73l-.38.22V56.2h3.84V72h-3.84V68.41l.38.13a4.8,4.8,0,0,1-2,2.7A6.34,6.34,0,0,1,494.66,72.19Zm1.06-3a3.59,3.59,0,0,0,3-1.34A6,6,0,0,0,499.78,64a6.06,6.06,0,0,0-1.06-3.86,3.64,3.64,0,0,0-3-1.33,3.69,3.69,0,0,0-3.06,1.38,6.08,6.08,0,0,0-1.09,3.87,5.78,5.78,0,0,0,1.09,3.77A3.76,3.76,0,0,0,495.72,69.19Z"/><path class="cls-1" d="M513,73l-7.27-16.8h4.09l5,12.37Zm-5.46,6.06-.88-3a13.24,13.24,0,0,0,2.44-.74,5.06,5.06,0,0,0,1.61-1.08,5.66,5.66,0,0,0,1.08-1.68L512.87,70l1-1.44,5.06-12.37h3.87L515.49,73a11.15,11.15,0,0,1-2.09,3.29,8.06,8.06,0,0,1-2.67,1.86A12.68,12.68,0,0,1,507.5,79.06Z"/><path class="cls-1" d="M530.39,72.19a10.69,10.69,0,0,1-6.81-2l1.1-2.74a9.07,9.07,0,0,0,2.71,1.4,10.11,10.11,0,0,0,3.07.47,4.18,4.18,0,0,0,2.18-.47,1.47,1.47,0,0,0,.75-1.31,1.39,1.39,0,0,0-.53-1.14,4.78,4.78,0,0,0-1.81-.73l-2.63-.6a6.25,6.25,0,0,1-3.23-1.58,3.86,3.86,0,0,1-1.08-2.82,4.16,4.16,0,0,1,.82-2.55,5.33,5.33,0,0,1,2.28-1.73,8.52,8.52,0,0,1,3.4-.63,10.38,10.38,0,0,1,3.25.52,8.21,8.21,0,0,1,2.72,1.48l-1.13,2.69A9,9,0,0,0,533,59.14a7.09,7.09,0,0,0-2.45-.44,3.75,3.75,0,0,0-2.09.5,1.56,1.56,0,0,0-.75,1.37,1.41,1.41,0,0,0,.45,1.1,3.52,3.52,0,0,0,1.58.65l2.65.66a6.59,6.59,0,0,1,3.42,1.61,4.33,4.33,0,0,1-.67,6.34A8,8,0,0,1,530.39,72.19Z"/><path class="cls-1" d="M548.6,49.05h4.34v3.84H548.6ZM548.79,72V56.2h3.9V72Z"/><path class="cls-1" d="M556.91,72V60.67c0-.75,0-1.5,0-2.25s-.1-1.49-.2-2.22h3.68l.35,3.12-.35.1a5.62,5.62,0,0,1,2.24-2.7,6.31,6.31,0,0,1,3.42-.93q5.63,0,5.62,6.5V72h-3.9V62.45a4.15,4.15,0,0,0-.72-2.7,2.71,2.71,0,0,0-2.22-.86A3.79,3.79,0,0,0,561.89,60a4.19,4.19,0,0,0-1.08,3V72Z"/><path class="cls-1" d="M590.08,72.19a10.69,10.69,0,0,1-6.81-2l1.09-2.74a9.25,9.25,0,0,0,2.72,1.4,10.09,10.09,0,0,0,3.06.47,4.19,4.19,0,0,0,2.19-.47,1.47,1.47,0,0,0,.75-1.31,1.39,1.39,0,0,0-.53-1.14,4.84,4.84,0,0,0-1.82-.73l-2.62-.6a6.21,6.21,0,0,1-3.23-1.58,3.86,3.86,0,0,1-1.08-2.82,4.21,4.21,0,0,1,.81-2.55,5.33,5.33,0,0,1,2.28-1.73,8.61,8.61,0,0,1,3.41-.63,10.48,10.48,0,0,1,3.25.52,8.16,8.16,0,0,1,2.71,1.48l-1.12,2.69a9,9,0,0,0-2.42-1.34,7.09,7.09,0,0,0-2.45-.44,3.79,3.79,0,0,0-2.1.5,1.56,1.56,0,0,0-.75,1.37,1.38,1.38,0,0,0,.46,1.1,3.47,3.47,0,0,0,1.57.65l2.66.66a6.59,6.59,0,0,1,3.42,1.61,4.33,4.33,0,0,1-.67,6.34A8,8,0,0,1,590.08,72.19Z"/><path class="cls-1" d="M613.47,70.22a8.06,8.06,0,0,1-2.76,1.46,11.12,11.12,0,0,1-3.33.51,9.39,9.39,0,0,1-4.42-1,6.69,6.69,0,0,1-2.86-2.81,9.1,9.1,0,0,1-1-4.37,9.19,9.19,0,0,1,1-4.29,7.27,7.27,0,0,1,2.69-2.91,7.45,7.45,0,0,1,4-1.05,7,7,0,0,1,3.74,1,6.29,6.29,0,0,1,2.43,2.73,9.66,9.66,0,0,1,.85,4.22v.59H602.54l0-2.09h8.87l-1.06,1.06a5.48,5.48,0,0,0-.89-3.47,3.16,3.16,0,0,0-2.67-1.18,3.49,3.49,0,0,0-2.91,1.32,6.14,6.14,0,0,0-1,3.8A6.22,6.22,0,0,0,604,67.87a4.41,4.41,0,0,0,3.5,1.32,7.73,7.73,0,0,0,2.51-.42,8.12,8.12,0,0,0,2.3-1.23Z"/><path class="cls-1" d="M623.19,72.19a6.86,6.86,0,0,1-3.66-1,6.47,6.47,0,0,1-2.45-2.81,11.19,11.19,0,0,1,0-8.65,7,7,0,0,1,2.45-2.91,6.4,6.4,0,0,1,3.64-1.05,6.13,6.13,0,0,1,3.48,1,4.81,4.81,0,0,1,2,2.73l-.37.22V56.2h3.84V72h-3.84V68.41l.37.13a4.74,4.74,0,0,1-2,2.7A6.34,6.34,0,0,1,623.19,72.19Zm1.06-3a3.59,3.59,0,0,0,3-1.34A6,6,0,0,0,628.31,64a6.06,6.06,0,0,0-1.06-3.86,3.64,3.64,0,0,0-3-1.33,3.69,3.69,0,0,0-3.06,1.38,6.08,6.08,0,0,0-1.1,3.87,5.78,5.78,0,0,0,1.1,3.77A3.76,3.76,0,0,0,624.25,69.19Z"/><path class="cls-1" d="M642.18,72.19a10.65,10.65,0,0,1-6.81-2l1.09-2.74a9.13,9.13,0,0,0,2.72,1.4,10.09,10.09,0,0,0,3.06.47,4.19,4.19,0,0,0,2.19-.47,1.48,1.48,0,0,0,.74-1.31,1.36,1.36,0,0,0-.53-1.14,4.71,4.71,0,0,0-1.81-.73l-2.62-.6A6.17,6.17,0,0,1,637,63.52a3.86,3.86,0,0,1-1.08-2.82,4.21,4.21,0,0,1,.81-2.55A5.33,5.33,0,0,1,639,56.42a8.57,8.57,0,0,1,3.41-.63,10.37,10.37,0,0,1,3.24.52,8.21,8.21,0,0,1,2.72,1.48l-1.12,2.69a9,9,0,0,0-2.42-1.34,7.14,7.14,0,0,0-2.46-.44,3.78,3.78,0,0,0-2.09.5,1.56,1.56,0,0,0-.75,1.37,1.41,1.41,0,0,0,.45,1.1,3.58,3.58,0,0,0,1.58.65l2.66.66a6.59,6.59,0,0,1,3.42,1.61,4.35,4.35,0,0,1-.67,6.34A8,8,0,0,1,642.18,72.19Z"/><path class="cls-1" d="M659.2,72.19a8.55,8.55,0,0,1-4.26-1,6.84,6.84,0,0,1-2.77-2.82,9.26,9.26,0,0,1-1-4.36,9.38,9.38,0,0,1,1-4.36,6.82,6.82,0,0,1,2.77-2.86,9.45,9.45,0,0,1,8.46,0,6.91,6.91,0,0,1,2.78,2.86,9.14,9.14,0,0,1,1,4.36,9,9,0,0,1-1,4.36,6.93,6.93,0,0,1-2.78,2.82A8.47,8.47,0,0,1,659.2,72.19Zm0-3a3.62,3.62,0,0,0,3-1.29A6.1,6.1,0,0,0,663.23,64a6,6,0,0,0-1.05-3.86,3.63,3.63,0,0,0-3-1.3,3.77,3.77,0,0,0-3.05,1.3A5.92,5.92,0,0,0,655.08,64a6,6,0,0,0,1.06,3.89A3.74,3.74,0,0,0,659.2,69.19Z"/><path class="cls-1" d="M670.51,72V60.67c0-.75,0-1.5,0-2.25s-.1-1.49-.2-2.22h3.68l.35,3.12-.35.1a5.66,5.66,0,0,1,2.23-2.7,6.31,6.31,0,0,1,3.42-.93q5.63,0,5.63,6.5V72h-3.91V62.45a4.15,4.15,0,0,0-.72-2.7,2.68,2.68,0,0,0-2.21-.86A3.79,3.79,0,0,0,675.49,60a4.19,4.19,0,0,0-1.08,3V72Z"/><line class="cls-2" x1="399.64" y1="16.81" x2="399.64" y2="105.67"/><path class="cls-1" d="M173.06,90.21q-14.26,0-22.57-7.3l3-6.73a32.14,32.14,0,0,0,9.27,5.11,32.82,32.82,0,0,0,10.61,1.62q6.39,0,9.71-2.19a7.14,7.14,0,0,0,3.31-6.34,6.72,6.72,0,0,0-2.25-5.33q-2.25-2-7.41-3.2l-9.54-2.25Q160.15,62,156.27,58a13.46,13.46,0,0,1-3.87-9.65,14.55,14.55,0,0,1,2.7-8.71,17.86,17.86,0,0,1,7.52-5.89,28.16,28.16,0,0,1,11.45-2.13,32.59,32.59,0,0,1,11.23,1.91,23.65,23.65,0,0,1,8.86,5.5l-3,6.62a29.54,29.54,0,0,0-8.25-5A24.12,24.12,0,0,0,174.07,39c-4,0-7.17.78-9.38,2.36a7.46,7.46,0,0,0-3.31,6.39,7.27,7.27,0,0,0,2.08,5.5q2.07,2,6.68,3.15l9.54,2.36q8,1.68,11.73,5.55a13.54,13.54,0,0,1,3.77,9.83,13.78,13.78,0,0,1-6,11.67Q183.28,90.21,173.06,90.21Z"/><path class="cls-1" d="M226.27,90.21a24.39,24.39,0,0,1-13.19-3.54,23.14,23.14,0,0,1-8.76-10.1,35.93,35.93,0,0,1-3.08-15.44,35.73,35.73,0,0,1,3.14-15.49,24.61,24.61,0,0,1,8.81-10.33,23.37,23.37,0,0,1,13.08-3.7,22.12,22.12,0,0,1,13.14,3.82,18.86,18.86,0,0,1,7.3,10.89l-1.35.89V33h9V89.43h-9V74.83l1.35.67a18.86,18.86,0,0,1-7.3,10.89A22.12,22.12,0,0,1,226.27,90.21Zm1.8-7.52q8.31,0,12.8-5.67t4.49-16.11q0-10.44-4.55-16t-12.74-5.62q-8.31,0-13,5.78t-4.66,16.11q0,10.33,4.66,15.95T228.07,82.69Z"/><path class="cls-1" d="M269.16,89.43V6.8h9.09V89.43Z"/><path class="cls-1" d="M293,89.43V33h9.09V89.43Z"/><circle class="cls-1" cx="297.53" cy="20.78" r="5.71"/><polygon class="cls-1" points="343.7 60.35 365.71 32.95 354.59 32.95 338.2 53.73 321.81 32.95 310.81 32.95 332.92 60.35 338.2 67.2 356.05 89.43 366.94 89.43 343.7 60.35"/><polygon class="cls-1" points="309.46 89.43 320.57 89.43 338.07 67.36 327.26 67.36 309.46 89.43"/><path class="cls-3" d="M111.63,56.78a34.35,34.35,0,0,0-15.26-12,21.94,21.94,0,0,1-4.07,9.89A23.82,23.82,0,1,1,59.74,77.77a17.44,17.44,0,0,1-10.68-2.36,34.52,34.52,0,1,0,62.57-18.63Z"/><path class="cls-4" d="M51,100.33a21.22,21.22,0,0,1-2.67-4.86,23.82,23.82,0,1,1-6.35-42,17.34,17.34,0,0,1,7.75-8.36,34.51,34.51,0,1,0,4.86,59l0-.05A21.61,21.61,0,0,1,51,100.33Z"/><path class="cls-5" d="M86.36,14.44A34.53,34.53,0,0,0,24,38.13a22.13,22.13,0,0,1,10.64-1.19,23.87,23.87,0,0,1,9.84-21.79,23.82,23.82,0,0,1,29.3,37.52,22,22,0,0,1,4.9,9.75,34.51,34.51,0,0,0,7.73-48Z"/></g></g></svg>