<svg xmlns="http://www.w3.org/2000/svg" viewBox="0 0 366.94 111.4"><defs><style>.cls-1{fill:#fff;}.cls-2{fill:#59a561;}.cls-3{fill:#f5c237;}.cls-4{fill:#ff8c46;}</style></defs><g id="Layer_2" data-name="Layer 2"><g id="Capa_1" data-name="Capa 1"><path class="cls-1" d="M173.06,90.21q-14.26,0-22.57-7.3l3-6.73a32.14,32.14,0,0,0,9.27,5.11,32.82,32.82,0,0,0,10.61,1.62q6.39,0,9.71-2.19a7.14,7.14,0,0,0,3.31-6.34,6.72,6.72,0,0,0-2.25-5.33q-2.25-2-7.41-3.2l-9.54-2.25Q160.15,62,156.27,58a13.46,13.46,0,0,1-3.87-9.65,14.55,14.55,0,0,1,2.7-8.71,17.86,17.86,0,0,1,7.52-5.89,28.16,28.16,0,0,1,11.45-2.13,32.59,32.59,0,0,1,11.23,1.91,23.65,23.65,0,0,1,8.86,5.5l-3,6.62a29.54,29.54,0,0,0-8.25-5A24.12,24.12,0,0,0,174.07,39c-4,0-7.17.78-9.38,2.36a7.46,7.46,0,0,0-3.31,6.39,7.27,7.27,0,0,0,2.08,5.5q2.07,2,6.68,3.15l9.54,2.36q8,1.68,11.73,5.55a13.54,13.54,0,0,1,3.77,9.83,13.78,13.78,0,0,1-6,11.67Q183.28,90.21,173.06,90.21Z"/><path class="cls-1" d="M226.27,90.21a24.39,24.39,0,0,1-13.19-3.54,23.14,23.14,0,0,1-8.76-10.1,35.93,35.93,0,0,1-3.08-15.44,35.73,35.73,0,0,1,3.14-15.49,24.61,24.61,0,0,1,8.81-10.33,23.37,23.37,0,0,1,13.08-3.7,22.12,22.12,0,0,1,13.14,3.82,18.86,18.86,0,0,1,7.3,10.89l-1.35.89V33h9V89.43h-9V74.83l1.35.67a18.86,18.86,0,0,1-7.3,10.89A22.12,22.12,0,0,1,226.27,90.21Zm1.8-7.52q8.31,0,12.8-5.67t4.49-16.11q0-10.44-4.55-16t-12.74-5.62q-8.31,0-13,5.78t-4.66,16.11q0,10.33,4.66,15.95T228.07,82.69Z"/><path class="cls-1" d="M269.16,89.43V6.8h9.09V89.43Z"/><path class="cls-1" d="M293,89.43V33h9.09V89.43Z"/><circle class="cls-1" cx="297.53" cy="20.78" r="5.71"/><polygon class="cls-1" points="343.7 60.35 365.71 32.95 354.59 32.95 338.2 53.73 321.81 32.95 310.81 32.95 332.92 60.35 338.2 67.2 356.05 89.43 366.94 89.43 343.7 60.35"/><polygon class="cls-1" points="309.46 89.43 320.57 89.43 338.07 67.36 327.26 67.36 309.46 89.43"/><path class="cls-2" d="M111.63,56.78a34.35,34.35,0,0,0-15.26-12,21.94,21.94,0,0,1-4.07,9.89A23.82,23.82,0,1,1,59.74,77.77a17.44,17.44,0,0,1-10.68-2.36,34.52,34.52,0,1,0,62.57-18.63Z"/><path class="cls-3" d="M51,100.33a21.22,21.22,0,0,1-2.67-4.86,23.82,23.82,0,1,1-6.35-42,17.34,17.34,0,0,1,7.75-8.36,34.51,34.51,0,1,0,4.86,59l0-.05A21.61,21.61,0,0,1,51,100.33Z"/><path class="cls-4" d="M86.36,14.44A34.53,34.53,0,0,0,24,38.13a22.13,22.13,0,0,1,10.64-1.19,23.87,23.87,0,0,1,9.84-21.79,23.82,23.82,0,0,1,29.3,37.52,22,22,0,0,1,4.9,9.75,34.51,34.51,0,0,0,7.73-48Z"/></g></g></svg>